:SAMPLES-PER-SECOND 30
:FRAME-RANGE 1-2045
:FULLY-SPECIFIED
:DEGREES
1982
root  -17.2247 38.2842 -13.3583 -176.989 -28.2327 -176.574
RightUpLeg  -9.16602 3.14761 -3.34
RightLeg  26.7787 3.40978 1.64532
RightFoot  -21.1823 0.388784 6.18044
RightToes  -5.28216e-011 1.2921e-014 -6.02303e-014
Spine  2.10403 -2.17818 1.82423
Spine1  6.00164 -1.9643 -1.94356
HEad  4.49251 -24.0851 4.7532
LeftShoulder1  1.03076 -0.629503 -19.9759
LeftArm  0.753027 23.1039 -36.0176
LeftForeArm  -3.92618 -52.4136 -14.9797
LeftHand  0.558124 -2.4062 -8.12579
RightShoulder  1.67267 2.38735 23.2117
RightArm  12.0503 1.72058 47.8915
RightForeArm  15.7696 57.1254 16.2165
RightHand  -0.0225423 -5.7698 -2.10147
LeftUpLeg  -26.7363 9.66932 16.1639
LeftLeg  2.97452 3.72432 4.55734
LeftFoot  -4.45462 0.720683 -11.5051
LeftToes  9.43379e-011 5.24309e-011 -4.66411e-011
1983
root  -18.5629 38.1413 -14.1464 -177.241 -29.1324 -176.495
RightUpLeg  -5.69091 2.74579 -4.44316
RightLeg  25.2382 3.24047 1.44434
RightFoot  -22.5764 0.55488 7.19188
RightToes  -5.28216e-011 1.2921e-014 -6.02303e-014
Spine  1.39219 -2.37544 1.22951
Spine1  5.82965 -2.32618 -1.50911
HEad  4.53441 -23.7288 5.30584
LeftShoulder1  1.05165 -0.73715 -19.7825
LeftArm  1.23979 22.6025 -36.3926
LeftForeArm  -2.94756 -52.379 -14.8858
LeftHand  0.528369 -2.3868 -7.70463
RightShoulder  1.5853 1.9627 23.9492
RightArm  9.86649 -0.496339 47.7929
RightForeArm  18.1491 58.7052 17.1159
RightHand  -0.0176179 -6.02205 -2.35681
LeftUpLeg  -27.2157 9.94205 15.3519
LeftLeg  2.73629 9.87352 4.34439
LeftFoot  -5.04255 0.666608 -11.5373
LeftToes  9.43379e-011 5.24309e-011 -4.66411e-011
1984
root  -20.0007 37.8636 -14.9122 -177.649 -29.6578 -176.519
RightUpLeg  -2.54878 2.94256 -5.75475
RightLeg  24.8857 3.0256 1.31109
RightFoot  -24.0322 0.838454 8.99317
RightToes  -5.28216e-011 1.2921e-014 -6.02303e-014
Spine  0.728911 -2.31218 1.04118
Spine1  5.87272 -2.27239 -1.66493
HEad  4.23777 -23.6554 6.18175
LeftShoulder1  1.00822 -0.62381 -19.4005
LeftArm  2.94442 21.8292 -36.7195
LeftForeArm  -1.6333 -52.999 -15.1372
LeftHand  0.522788 -2.29794 -7.71767
RightShoulder  1.53379 1.71153 24.4467
RightArm  6.64771 -3.15106 47.563
RightForeArm  20.7459 60.5244 18.2929
RightHand  -0.0154015 -6.22204 -2.25724
LeftUpLeg  -27.8291 9.99173 14.1376
LeftLeg  6.55225 16.5461 4.77333
LeftFoot  -4.14517 0.615099 -9.37274
LeftToes  9.43379e-011 5.24309e-011 -4.66411e-011
1985
root  -21.4257 37.7659 -15.6528 -178.085 -29.7082 -177.065
RightUpLeg  0.478393 3.52562 -7.74719
RightLeg  24.8535 3.85148 1.72799
RightFoot  -23.9062 1.10336 11.4668
RightToes  -5.28216e-011 1.2921e-014 -6.02303e-014
Spine  0.21683 -2.19425 -0.227843
Spine1  6.47146 -2.01122 -2.28802
HEad  3.94628 -23.378 6.72619
LeftShoulder1  0.853395 -0.0553809 -19.1102
LeftArm  4.49025 21.1973 -37.3003
LeftForeArm  0.102602 -53.6609 -15.3872
LeftHand  0.51237 -2.27914 -7.5809
RightShoulder  1.50738 1.58679 24.6943
RightArm  3.11176 -6.45821 46.7878
RightForeArm  24.6594 63.5323 20.6747
RightHand  -0.0176371 -6.82542 -1.45413
LeftUpLeg  -27.7419 8.751 13.1412
LeftLeg  11.1983 18.444 6.00022
LeftFoot  0.196198 0.926026 -9.16544
LeftToes  9.43379e-011 5.24309e-011 -4.66411e-011
1986
root  -22.9509 37.6165 -16.3984 -178.458 -29.6416 -177.374
RightUpLeg  2.12713 5.07194 -9.60647
RightLeg  27.1193 4.80199 2.44545
RightFoot  -22.9979 1.33582 14.5522
RightToes  -5.28216e-011 1.2921e-014 -6.02303e-014
Spine  -0.384896 -2.0356 -1.51688
Spine1  6.70989 -1.92812 -2.1739
HEad  3.99035 -23.1132 7.92923
LeftShoulder1  0.665718 0.672893 -18.9946
LeftArm  5.65091 21.0373 -37.8881
LeftForeArm  1.40481 -54.2763 -15.6525
LeftHand  0.518582 -2.15967 -7.80737
RightShoulder  1.40236 1.03914 26.2108
RightArm  0.905466 -8.40504 44.9994
RightForeArm  27.1606 65.1294 22.148
RightHand  -0.0281328 -6.63164 -0.687214
LeftUpLeg  -28.3921 6.7494 13.2426
LeftLeg  16.8215 15.6185 5.97777
LeftFoot  4.28012 1.47498 -10.9178
LeftToes  9.43379e-011 5.24309e-011 -4.66411e-011
1987
root  -24.6073 37.5523 -17.1484 -178.024 -31.7897 -179.746
RightUpLeg  4.024 4.24764 -13.7632
RightLeg  30.5558 6.57703 3.94975
RightFoot  -20.8462 1.33972 17.6976
RightToes  -5.28216e-011 1.2921e-014 -6.02303e-014
Spine  -0.930978 -2.57029 -4.91901
Spine1  7.18009 -2.6906 -1.36316
HEad  4.59507 -23.8917 9.30807
LeftShoulder1  0.696422 0.541459 -18.8963
LeftArm  6.83667 20.9004 -38.7481
LeftForeArm  1.85646 -54.122 -15.5208
LeftHand  0.509517 -2.03171 -7.81257
RightShoulder  1.30257 0.667145 26.7244
RightArm  -1.93434 -10.9431 43.873
RightForeArm  28.926 66.1991 23.251
RightHand  -0.0353307 -6.2589 0.128908
LeftUpLeg  -28.7611 6.82548 8.99045
LeftLeg  21.7305 10.9188 5.08465
LeftFoot  3.25357 1.11693 -8.86462
LeftToes  9.43379e-011 5.24309e-011 -4.66411e-011
1988
root  -26.1979 37.6289 -17.828 -177.853 -32.6814 179.18
RightUpLeg  3.20965 4.9954 -16.0237
RightLeg  36.4371 6.29288 4.71801
RightFoot  -15.5612 0.632107 19.8599
RightToes  -5.28216e-011 1.2921e-014 -6.02303e-014
Spine  -1.45336 -2.52139 -5.64709
Spine1  7.16872 -2.46419 -2.39303
HEad  6.73734 -25.0252 9.4137
LeftShoulder1  0.667592 0.713554 -19.4991
LeftArm  8.26047 20.3376 -38.8178
LeftForeArm  2.83117 -53.969 -15.3474
LeftHand  0.508478 -2.04086 -7.78587
RightShoulder  1.14078 0.226943 26.1775
RightArm  -5.27774 -14.7997 44.1378
RightForeArm  32.6458 67.9096 25.1405
RightHand  -0.041357 -6.11386 1.08595
LeftUpLeg  -27.609 7.23156 6.41766
LeftLeg  24.0687 9.34757 4.87575
LeftFoot  3.16998 1.05795 -8.45091
LeftToes  9.43379e-011 5.24309e-011 -4.66411e-011
1989
root  -27.6365 37.9052 -18.4255 -177.786 -32.9314 179.342
RightUpLeg  -1.258 6.21411 -15.734
RightLeg  45.5945 2.03445 1.91374
RightFoot  -6.62536 -0.7625 17.2924
RightToes  -5.28216e-011 1.2921e-014 -6.02303e-014
Spine  -1.26948 -2.36115 -5.65077
Spine1  5.9419 -2.25697 -2.44977
HEad  9.03641 -25.4599 8.97657
LeftShoulder1  0.504551 1.39822 -20.2472
LeftArm  8.73138 20.0751 -38.5607
LeftForeArm  4.92915 -54.8529 -15.7112
LeftHand  0.498492 -1.86577 -7.83131
RightShoulder  1.08944 0.176092 25.1177
RightArm  -7.73384 -18.2498 44.8063
RightForeArm  36.6493 69.828 27.7694
RightHand  -0.0477927 -6.18589 1.76065
LeftUpLeg  -26.3193 8.16572 4.93551
LeftLeg  25.3401 8.07984 4.49412
LeftFoot  0.651842 0.651002 -6.23248
LeftToes  9.43379e-011 5.24309e-011 -4.66411e-011
